<svg width="95" height="25" viewBox="0 0 95 25" fill="none" xmlns="http://www.w3.org/2000/svg">
<path fill-rule="evenodd" clip-rule="evenodd" d="M12.1888 11.4632L11.6592 10.8571C10.7687 11.6498 9.41005 11.8985 8.32004 11.4011C7.27608 10.9192 6.73107 9.68357 7.13023 8.58001C7.33749 7.99714 7.84412 7.55416 8.35074 7.23553C7.83644 6.69152 7.46031 6.09311 7.55242 5.30819C7.62918 4.62429 8.08975 4.04143 8.7192 3.80051C9.3947 3.53628 10.2314 3.59068 10.8455 3.97148C11.4442 4.34452 11.7359 5.0051 11.6822 5.71231C11.6208 6.59049 10.9606 7.16559 10.2621 7.57748L11.5747 9.02298C11.7187 8.74686 11.743 8.41018 11.7657 8.09511L11.7666 8.08263C11.7897 7.77177 11.7897 7.4609 11.7897 7.14227H13.7394V8.20697H12.8643C12.8336 8.80538 12.7338 9.41933 12.4037 9.92448L13.8008 11.4555H12.1888V11.4632ZM6.23213 9.17066C6.23213 9.76907 6.02487 10.3364 5.60268 10.7716C5.01162 11.37 4.15189 11.5721 3.34589 11.5876C2.48617 11.6109 1.60341 11.3933 0.958612 10.8027C0.467339 10.3519 0.167969 9.69912 0.167969 9.023H1.5727C1.5727 9.37272 1.72623 9.71467 1.96419 9.96336C2.30194 10.3053 2.80856 10.3752 3.26146 10.3752C3.699 10.3675 4.22097 10.3053 4.54337 9.96336C4.8888 9.59032 4.99627 8.92974 4.55105 8.58002C4.16674 8.28662 3.64283 8.24972 3.16179 8.21585C3.05672 8.20845 2.9537 8.2012 2.85462 8.19144C2.27123 8.13704 1.67249 8.03601 1.1889 7.68629C0.728328 7.35212 0.436634 6.83142 0.375225 6.25633C0.306139 5.57243 0.5441 4.95071 1.02002 4.46888C1.56503 3.9171 2.38638 3.67618 3.13864 3.66064C3.9216 3.64509 4.76598 3.84715 5.34169 4.4067C5.79459 4.83414 6.09395 5.40146 6.10931 6.03873H4.71225C4.6969 5.75895 4.5664 5.48695 4.38217 5.28489C4.09816 4.9818 3.60688 4.873 3.20005 4.873C2.77018 4.88077 2.30961 4.96625 2.00257 5.29266C1.63411 5.69678 1.64179 6.38845 2.15609 6.66045C2.38249 6.77506 2.64933 6.80194 2.90148 6.82735L2.90149 6.82735L2.9015 6.82735L2.90153 6.82735L2.90159 6.82736C2.94007 6.83124 2.97822 6.83508 3.01582 6.8392C3.17317 6.85862 3.33052 6.87417 3.48787 6.88971L3.4879 6.88971H3.48791H3.48791H3.48791H3.48791H3.48792H3.48792H3.48792H3.48793H3.48793H3.48793H3.48793H3.48794H3.48794C3.64529 6.90525 3.80264 6.9208 3.95999 6.94023C4.55873 7.01794 5.14979 7.19669 5.59501 7.62412C6.02487 8.02047 6.23213 8.58779 6.23213 9.17066ZM9.11626 8.08088L9.12603 8.07486L10.8532 10.0022C10.3235 10.6084 9.11068 10.6706 8.54264 10.0877C8.25863 9.80014 8.15884 9.34939 8.2663 8.96081C8.38799 8.52962 8.76587 8.29678 9.11626 8.08088ZM10.4463 5.58021C10.4463 5.2538 10.3005 4.96626 10.0011 4.83414C9.69407 4.69425 9.31026 4.73311 9.03392 4.93517C8.76525 5.13723 8.69617 5.50249 8.79596 5.81336C8.90226 6.15776 9.15906 6.41604 9.40928 6.66772L9.47146 6.7304L9.51963 6.70247C9.97377 6.43939 10.4463 6.16565 10.4463 5.58021ZM19.6884 8.09817C20.2181 7.63965 20.4407 6.94021 20.4407 6.24854C20.4407 5.55688 20.2181 4.85744 19.6884 4.40669C19.1588 3.95594 18.4526 3.80051 17.7771 3.80051H14.8141V11.4477H16.1804V8.70435H17.7771C18.4526 8.70435 19.1664 8.55669 19.6884 8.09817ZM19.0513 6.2563C19.0513 5.90658 18.9361 5.54132 18.6752 5.3004C18.4142 5.06726 18.0534 5.01286 17.7233 5.01286H16.1804V7.48421H17.7233C18.0534 7.48421 18.4218 7.42981 18.6752 7.20443C18.9438 6.97129 19.0513 6.60602 19.0513 6.2563ZM28.3471 10.6084L28.5083 11.4477V11.4555H29.3987V7.2666H26.2669V8.42456H28.0708C28.0708 8.98411 27.971 9.5048 27.5795 9.9167C26.9961 10.5384 25.7909 10.4996 25.2229 9.87007C24.6933 9.30274 24.6242 8.40124 24.6242 7.66295C24.6165 6.90911 24.6702 6.00761 25.2076 5.43252C25.7833 4.78748 27.0652 4.68645 27.6486 5.37811C27.8098 5.58795 27.9556 5.80555 27.9786 6.07755H29.3834C29.345 5.47914 29.0994 4.95845 28.6925 4.53102C27.5334 3.32643 25.3611 3.38083 24.202 4.55433C23.3806 5.38589 23.2194 6.50499 23.2194 7.63186C23.2194 8.75096 23.4037 9.90115 24.202 10.7405C24.7623 11.3389 25.53 11.5643 26.3283 11.5876C27.0729 11.6109 27.971 11.3156 28.3471 10.6084ZM32.7302 11.4399C32.2312 11.5488 31.6939 11.5643 31.241 11.3001C30.7804 11.0281 30.6346 10.5229 30.6346 10.01V3.64509H31.9779V9.77684C31.9779 9.94781 32.0086 10.1654 32.1775 10.2587C32.3046 10.3289 32.4534 10.3198 32.5978 10.311C32.6453 10.3082 32.6923 10.3053 32.7379 10.3053V11.4399H32.7302ZM37.7274 10.7172C38.1956 10.111 38.3798 9.40377 38.3798 8.64216C38.3798 7.88055 38.2033 7.17334 37.7274 6.57493C36.7909 5.4092 34.7951 5.4092 33.8509 6.57493C32.9605 7.72512 32.9605 9.56698 33.8509 10.7172C34.7874 11.8829 36.7832 11.8829 37.7274 10.7172ZM37.0288 8.64218C37.0288 8.15257 36.9751 7.60856 36.6373 7.22776C36.1998 6.75369 35.3861 6.75369 34.9563 7.22776C34.6108 7.60856 34.5648 8.15257 34.5648 8.64218C34.5648 9.13179 34.6185 9.67579 34.9563 10.0566C35.3938 10.5307 36.2075 10.5307 36.6373 10.0566C36.9751 9.67579 37.0288 9.13179 37.0288 8.64218ZM43.5382 11.098C44.2674 10.5074 44.5284 9.567 44.5284 8.64996C44.5284 7.53863 44.1984 6.70708 43.5382 6.14752C43.1314 5.7978 42.594 5.67346 42.0644 5.69677C41.5885 5.72009 41.0511 5.85998 40.7364 6.24855V3.66063H39.4008V11.4399H40.5522L40.6366 10.826C41.243 11.7819 42.7399 11.7741 43.5382 11.098ZM43.1774 8.63441C43.1774 8.16034 43.116 7.66296 42.8243 7.27439C42.5403 6.92467 42.1411 6.78478 41.7036 6.84695C41.2814 6.90913 40.982 7.21222 40.8285 7.60079C40.6596 8.02823 40.6443 8.53338 40.6904 8.97636C40.7287 9.41156 40.8285 9.85454 41.1509 10.1576C41.6345 10.6162 42.4175 10.4918 42.8243 9.99443C43.116 9.61362 43.1774 9.10847 43.1774 8.63441ZM48.8501 10.7483C48.9345 11.5798 49.8403 11.6575 50.4467 11.3855H50.4544V10.4063C50.4391 10.4141 50.4237 10.4141 50.4007 10.4141C50.132 10.5074 49.9708 10.3208 49.9708 10.0722V7.98938C49.9708 7.60857 49.9478 7.21222 49.8096 6.85473C49.4335 5.88329 48.3588 5.64237 47.4223 5.72009C46.9387 5.75895 46.4398 5.89106 46.056 6.2097C45.6568 6.5361 45.4572 7.02571 45.4265 7.53086H46.7161C46.7545 6.93245 47.2688 6.71485 47.7908 6.73039C47.998 6.73816 48.2437 6.76148 48.4126 6.90136C48.6121 7.07234 48.6659 7.36766 48.6659 7.61634V7.95829L47.0385 8.07487C46.4705 8.12149 45.8794 8.31578 45.511 8.78208C45.1732 9.20174 45.0811 9.77683 45.2193 10.2898C45.3575 10.7949 45.7182 11.1913 46.1865 11.4011C47.0308 11.7819 48.3588 11.6342 48.8501 10.7483ZM48.6659 8.95303L47.2611 9.06183C46.885 9.08515 46.5012 9.31052 46.4628 9.71464C46.4244 10.1343 46.7392 10.4374 47.1383 10.484C47.5144 10.5307 47.9366 10.4219 48.236 10.1887C48.543 9.94779 48.6659 9.58252 48.6659 9.20172V8.95303ZM51.8591 11.2845C52.3197 11.5643 52.8647 11.5488 53.3713 11.44V10.3053C53.3258 10.3053 53.2788 10.3082 53.2313 10.311C53.0869 10.3198 52.9381 10.3289 52.811 10.2587C52.6421 10.1654 52.6114 9.94781 52.6114 9.77684V3.64509H51.2681V10.0022C51.2681 10.5151 51.4063 11.0125 51.8591 11.2845Z" fill="white"/>
<rect x="0.167969" width="53.2034" height="1.38333" fill="white"/>
<path d="M5.68035 20.1274C5.64964 20.4849 5.56521 20.8191 5.41936 21.1299C5.27351 21.4408 5.08161 21.705 4.84365 21.9304C4.60569 22.1558 4.32167 22.3345 3.99927 22.4666C3.67687 22.591 3.32377 22.6609 2.93996 22.6609C2.57151 22.6609 2.20305 22.591 1.84995 22.4433C1.48917 22.2957 1.17445 22.0858 0.905785 21.8138C0.698529 21.604 0.529654 21.3631 0.414512 21.1066C0.291694 20.8502 0.207256 20.5859 0.145847 20.3062C0.0844376 20.0342 0.0460569 19.7466 0.0307046 19.4591C0.0153523 19.1715 0 18.884 0 18.6042C0 18.3244 0.00767615 18.0446 0.0307046 17.7571C0.0460569 17.4695 0.0844376 17.1898 0.145847 16.91C0.207256 16.6302 0.291694 16.366 0.414512 16.1095C0.53733 15.8531 0.698529 15.6199 0.905785 15.4101C1.17445 15.1381 1.48917 14.9283 1.84995 14.7806C2.21073 14.6329 2.57151 14.563 2.93996 14.563C3.32377 14.563 3.67687 14.6252 3.99927 14.7573C4.32167 14.8894 4.60569 15.0604 4.84365 15.2935C5.08161 15.5189 5.27351 15.7909 5.41936 16.094C5.56521 16.4048 5.64964 16.739 5.68035 17.0965H5.09696C5.07393 16.809 5.00485 16.5447 4.88971 16.3038C4.77456 16.0629 4.62104 15.8531 4.43681 15.6743C4.25259 15.4956 4.02998 15.3635 3.77666 15.2702C3.52335 15.1769 3.24701 15.1303 2.93996 15.1303C2.59454 15.1303 2.28749 15.1925 2.0265 15.3091C1.76551 15.4256 1.52755 15.5888 1.3203 15.8064C1.14375 15.993 1.01325 16.195 0.913462 16.4204C0.813672 16.6458 0.744586 16.8867 0.698529 17.1276C0.652473 17.3763 0.621768 17.625 0.614092 17.8737C0.606416 18.1301 0.598739 18.371 0.598739 18.6042C0.598739 18.8373 0.606416 19.086 0.614092 19.3347C0.621768 19.5912 0.652473 19.8399 0.706206 20.0886C0.759939 20.3372 0.829024 20.5782 0.928814 20.8035C1.0286 21.0289 1.1591 21.2387 1.33565 21.4175C1.76551 21.8682 2.30284 22.0858 2.94764 22.0858C3.25469 22.0858 3.53103 22.0392 3.78434 21.946C4.03765 21.8527 4.26026 21.7128 4.44449 21.5418C4.62872 21.3631 4.78224 21.1533 4.89738 20.9123C5.01252 20.6714 5.08161 20.4072 5.10464 20.1196H5.68035V20.1274Z" fill="white"/>
<path fill-rule="evenodd" clip-rule="evenodd" d="M11.4309 21.0133C11.546 20.6481 11.6074 20.2284 11.6074 19.7621C11.6074 19.288 11.5537 18.8762 11.4309 18.5109C11.3157 18.1456 11.1161 17.8192 10.8321 17.5317C10.6402 17.3374 10.4099 17.182 10.1489 17.0576C9.88796 16.9333 9.58091 16.8711 9.24316 16.8711C8.90541 16.8711 8.59836 16.9333 8.33737 17.0576C8.06871 17.182 7.8461 17.3374 7.6542 17.5317C7.37018 17.8192 7.1706 18.1456 7.05546 18.5109C6.94032 18.8762 6.87891 19.2958 6.87891 19.7621C6.87891 20.2284 6.94032 20.6481 7.05546 21.0133C7.1706 21.3786 7.37018 21.705 7.6542 21.9925C7.8461 22.1868 8.07639 22.3423 8.33737 22.4666C8.59836 22.5909 8.90541 22.6531 9.24316 22.6531C9.58091 22.6531 9.88028 22.5909 10.1489 22.4666C10.4176 22.3423 10.6402 22.1868 10.8321 21.9925C11.1161 21.705 11.3157 21.3786 11.4309 21.0133ZM10.9319 18.7518C11.0164 19.0626 11.0547 19.4046 11.0547 19.7621C11.0547 20.1196 11.0164 20.4615 10.9319 20.7724C10.8475 21.0833 10.6863 21.3708 10.4406 21.6273C10.2948 21.7749 10.1182 21.8915 9.92634 21.977C9.73443 22.0625 9.50415 22.1091 9.24316 22.1091C8.98217 22.1091 8.75956 22.0625 8.55998 21.977C8.3604 21.8915 8.19153 21.7749 8.04568 21.6273C7.80004 21.3708 7.63117 21.091 7.55441 20.7724C7.46997 20.4615 7.43159 20.1196 7.43159 19.7621C7.43159 19.4046 7.46997 19.0626 7.55441 18.7518C7.63885 18.4409 7.80004 18.1534 8.04568 17.8969C8.19153 17.7493 8.36808 17.6327 8.55998 17.5472C8.75189 17.4617 8.98217 17.4151 9.24316 17.4151C9.50415 17.4151 9.73443 17.4617 9.92634 17.5472C10.1259 17.6327 10.2948 17.7493 10.4406 17.8969C10.6863 18.1534 10.8475 18.4409 10.9319 18.7518Z" fill="white"/>
<path d="M19.9042 22.5133V18.915C19.9042 18.441 19.8044 18.0602 19.6125 17.7959C19.4129 17.5239 19.0829 17.3918 18.6146 17.3918C18.4074 17.3918 18.2231 17.4229 18.0619 17.4929C17.9084 17.5628 17.7702 17.6483 17.6398 17.7649C17.4325 17.9669 17.2713 18.2156 17.1638 18.4954C17.0564 18.7752 17.0026 19.0783 17.0026 19.4124V22.5288H16.45V18.9306C16.45 18.4565 16.3502 18.0757 16.1506 17.8115C15.951 17.5395 15.6133 17.4074 15.145 17.4074C14.9378 17.4074 14.7535 17.4385 14.5923 17.5084C14.4388 17.5783 14.3006 17.6638 14.1701 17.7804C13.9245 18.0136 13.7556 18.3089 13.6558 18.6586C13.5637 19.0083 13.5177 19.3813 13.5177 19.7777V22.5288H12.9727V17.0266H13.4486L13.5177 17.9747C13.6635 17.6561 13.8784 17.3996 14.1625 17.1898C14.4465 16.9877 14.7842 16.8789 15.1757 16.8789C15.6516 16.8789 16.0354 16.9877 16.3118 17.2053C16.5881 17.4229 16.7877 17.7105 16.8952 18.068C17.041 17.726 17.2559 17.4385 17.54 17.2131C17.824 16.9877 18.1924 16.8789 18.6453 16.8789C18.9677 16.8789 19.2364 16.9255 19.4667 17.0266C19.697 17.1276 19.8812 17.2675 20.027 17.4462C20.1729 17.625 20.2803 17.8426 20.3494 18.0835C20.4185 18.3322 20.4492 18.5964 20.4492 18.8917V22.5288H19.9042V22.5133Z" fill="white"/>
<path d="M29.037 22.5133V18.915C29.037 18.441 28.9372 18.0602 28.7453 17.7959C28.5458 17.5239 28.2157 17.3918 27.7474 17.3918C27.5402 17.3918 27.356 17.4229 27.1948 17.4929C27.0412 17.5628 26.9031 17.6483 26.7726 17.7649C26.5653 17.9669 26.4041 18.2156 26.2966 18.4954C26.1892 18.7752 26.1354 19.0783 26.1354 19.4124V22.5288H25.5828V18.9306C25.5828 18.4565 25.483 18.0757 25.2834 17.8115C25.0838 17.5395 24.7461 17.4074 24.2778 17.4074C24.0706 17.4074 23.8863 17.4385 23.7251 17.5084C23.5716 17.5783 23.4334 17.6638 23.3029 17.7804C23.0573 18.0136 22.8884 18.3089 22.7886 18.6586C22.6965 19.0083 22.6505 19.3813 22.6505 19.7777V22.5288H22.1055V17.0266H22.5814L22.6505 17.9747C22.7963 17.6561 23.0113 17.3996 23.2953 17.1898C23.5793 16.9877 23.917 16.8789 24.3085 16.8789C24.7844 16.8789 25.1683 16.9877 25.4446 17.2053C25.7209 17.4229 25.9205 17.7105 26.028 18.068C26.1738 17.726 26.3888 17.4385 26.6728 17.2131C26.9568 16.9877 27.3252 16.8789 27.7781 16.8789C28.1005 16.8789 28.3692 16.9255 28.5995 17.0266C28.8298 17.1276 29.014 17.2675 29.1598 17.4462C29.3057 17.625 29.4132 17.8426 29.4822 18.0835C29.5513 18.3322 29.582 18.5964 29.582 18.8917V22.5288H29.037V22.5133Z" fill="white"/>
<path fill-rule="evenodd" clip-rule="evenodd" d="M35.4621 21.0133C35.5773 20.6481 35.6387 20.2284 35.6387 19.7621C35.6387 19.288 35.5849 18.8762 35.4621 18.5109C35.347 18.1456 35.1474 17.8192 34.8634 17.5317C34.6715 17.3374 34.4412 17.182 34.1802 17.0576C33.9192 16.9333 33.6122 16.8711 33.2744 16.8711C32.9367 16.8711 32.6296 16.9333 32.3686 17.0576C32.1 17.182 31.8774 17.3374 31.6854 17.5317C31.4014 17.8192 31.2018 18.1456 31.0867 18.5109C30.9716 18.8762 30.9102 19.2958 30.9102 19.7621C30.9102 20.2284 30.9716 20.6481 31.0867 21.0133C31.2018 21.3786 31.4014 21.705 31.6854 21.9925C31.8774 22.1868 32.1076 22.3423 32.3686 22.4666C32.6296 22.5909 32.9367 22.6531 33.2744 22.6531C33.6122 22.6531 33.9115 22.5909 34.1802 22.4666C34.4489 22.3423 34.6715 22.1868 34.8634 21.9925C35.1474 21.705 35.347 21.3786 35.4621 21.0133ZM34.9632 18.7518C35.0476 19.0626 35.086 19.4046 35.086 19.7621C35.086 20.1196 35.0476 20.4615 34.9632 20.7724C34.8787 21.0833 34.7175 21.3708 34.4719 21.6273C34.326 21.7749 34.1572 21.8915 33.9576 21.977C33.7657 22.0625 33.5354 22.1091 33.2744 22.1091C33.0134 22.1091 32.7908 22.0625 32.5912 21.977C32.3917 21.8915 32.2228 21.7749 32.0769 21.6273C31.8313 21.3708 31.6624 21.091 31.5857 20.7724C31.5012 20.4615 31.4628 20.1196 31.4628 19.7621C31.4628 19.4046 31.5089 19.0704 31.5857 18.7518C31.6701 18.4409 31.8313 18.1534 32.0769 17.8969C32.2228 17.7493 32.3917 17.6327 32.5912 17.5472C32.7831 17.4617 33.0134 17.4151 33.2744 17.4151C33.5354 17.4151 33.758 17.4617 33.9576 17.5472C34.1572 17.6327 34.326 17.7493 34.4719 17.8969C34.7175 18.1534 34.8864 18.4332 34.9632 18.7518Z" fill="white"/>
<path fill-rule="evenodd" clip-rule="evenodd" d="M40.9459 21.5418L41.015 22.5133H41.4909V14.563H40.9459V17.9281C40.8768 17.7726 40.777 17.6327 40.6465 17.5006C40.516 17.3685 40.3779 17.2519 40.2167 17.1587C40.0631 17.0654 39.8866 16.9955 39.7024 16.9411C39.5181 16.8867 39.3339 16.8634 39.1343 16.8634C38.8119 16.8634 38.5356 16.9178 38.29 17.0188C38.0443 17.1198 37.8371 17.2597 37.6528 17.4385C37.3611 17.7182 37.1462 18.0602 37.008 18.4721C36.8699 18.884 36.8008 19.3114 36.8008 19.7699C36.8008 20.244 36.8699 20.6947 37.0157 21.1066C37.1616 21.5185 37.3842 21.8605 37.6912 22.1325C37.8678 22.2957 38.075 22.42 38.313 22.5133C38.5509 22.6065 38.8196 22.6532 39.1343 22.6532C39.3186 22.6532 39.5028 22.6298 39.687 22.5754C39.8712 22.5288 40.0401 22.4511 40.2013 22.3578C40.3625 22.2646 40.5084 22.148 40.6389 22.0081C40.7693 21.8682 40.8768 21.7128 40.9459 21.5418ZM40.8077 18.6664C40.9075 18.985 40.9613 19.3503 40.9613 19.7622C40.9613 20.143 40.9075 20.4927 40.8001 20.8191C40.6926 21.1455 40.516 21.4331 40.2704 21.674C40.1322 21.8061 39.9787 21.9149 39.7945 21.9926C39.6179 22.0781 39.403 22.1169 39.165 22.1169C38.9347 22.1169 38.7352 22.0781 38.5586 22.0159C38.3821 21.946 38.2285 21.8527 38.0904 21.7284C37.8294 21.503 37.6528 21.2154 37.5377 20.8735C37.4225 20.5316 37.3688 20.1585 37.3688 19.7622C37.3688 19.4047 37.4149 19.0705 37.5147 18.7363C37.6144 18.4099 37.768 18.1224 37.9752 17.8892C38.1211 17.7416 38.2823 17.625 38.4742 17.5395C38.6584 17.454 38.881 17.4074 39.1343 17.4074C39.3876 17.4074 39.6102 17.4463 39.7945 17.524C39.9787 17.6017 40.1399 17.7027 40.2781 17.8348C40.5314 18.068 40.7079 18.3477 40.8077 18.6664Z" fill="white"/>
<path fill-rule="evenodd" clip-rule="evenodd" d="M43.3008 14.7104V15.4798H44.0607V14.7104H43.3008ZM43.4006 17.0108V22.5131H43.9763V17.0108H43.4006Z" fill="white"/>
<path d="M48.6427 22.4587C48.4892 22.4976 48.3434 22.5287 48.1898 22.552C48.044 22.5753 47.8905 22.5909 47.7369 22.5909C47.2303 22.5909 46.8695 22.4432 46.6546 22.1479C46.4397 21.8526 46.3322 21.464 46.3322 20.9899V17.5238H45.2422V17.0187H46.3322V15.5032L46.8772 15.3711V17.0264H48.566V17.5316H46.8772V20.9744C46.8772 21.1376 46.8926 21.2852 46.9156 21.4174C46.9386 21.5495 46.9847 21.6738 47.0538 21.7671C47.1228 21.8681 47.215 21.9458 47.3301 22.0002C47.4452 22.0546 47.5911 22.0857 47.7753 22.0857C47.9212 22.0857 48.067 22.0779 48.2052 22.0546C48.3434 22.0391 48.4892 22.0158 48.635 21.9847V22.4587H48.6427Z" fill="white"/>
<path d="M51.9305 23.6948C51.7924 24.0523 51.6081 24.3321 51.3702 24.5264C51.1322 24.7206 50.8328 24.8217 50.4644 24.8217C50.3569 24.8217 50.2571 24.8217 50.1727 24.8139C50.0882 24.8061 50.0115 24.7984 49.9578 24.7828C49.8887 24.7673 49.8273 24.7517 49.7812 24.7284V24.2699C49.8503 24.2854 49.927 24.2932 50.0115 24.301C50.142 24.3243 50.2878 24.3321 50.449 24.3321C50.71 24.3321 50.9173 24.2543 51.0708 24.0989C51.2243 23.9435 51.3471 23.7492 51.4392 23.5161L51.7847 22.6146L49.5586 17.019H50.142L52.0457 21.9073L53.8726 17.019H54.456L51.9305 23.6948Z" fill="white"/>
<path d="M58.5312 22.5131V18.6118V14.7104H58.8229H59.1146V22.5131H58.8229H58.5312V22.5131Z" fill="white"/>
<path d="M64.8239 22.5132V18.915C64.8239 18.4331 64.7165 18.0601 64.4939 17.7959C64.2789 17.5316 63.9182 17.4073 63.4192 17.4073C63.0891 17.4073 62.8051 17.4772 62.5748 17.6093C62.3446 17.7415 62.1526 17.9202 62.0145 18.1456C61.8763 18.3632 61.7688 18.6196 61.7074 18.8994C61.646 19.1792 61.6153 19.4667 61.6153 19.7621V22.5132H61.0703V17.0109H61.5462L61.6153 18.0135C61.6844 17.8347 61.7919 17.6793 61.9224 17.5394C62.0529 17.3995 62.1987 17.2829 62.3599 17.1819C62.5211 17.0809 62.6977 17.0032 62.8896 16.9488C63.0815 16.8944 63.2657 16.8633 63.4576 16.8633C64.087 16.8633 64.563 17.042 64.8854 17.3995C65.2078 17.757 65.369 18.2544 65.369 18.8761V22.5132H64.8239Z" fill="white"/>
<path d="M71.1646 20.9821C71.1646 21.3707 71.0418 21.7126 70.7961 21.9924C70.5966 22.21 70.3509 22.381 70.0439 22.4898C69.7368 22.5986 69.3991 22.653 69.0383 22.653C68.6699 22.653 68.3321 22.5908 68.0251 22.4743C67.718 22.3577 67.4647 22.1789 67.2498 21.9458C67.0962 21.767 66.9888 21.5961 66.9197 21.4251C66.8506 21.2541 66.8122 21.0598 66.7969 20.8345H67.3496C67.3803 21.1609 67.5108 21.4406 67.7487 21.6816C67.9099 21.837 68.0941 21.9458 68.3168 22.0157C68.5317 22.0857 68.7696 22.1168 69.0306 22.1168C69.3147 22.1168 69.5603 22.0857 69.7829 22.0157C69.9978 21.9458 70.1744 21.8448 70.3126 21.7049C70.4123 21.6038 70.4891 21.5028 70.5352 21.394C70.5812 21.293 70.6042 21.1609 70.6042 20.9977C70.6042 20.749 70.5198 20.5314 70.3509 20.3449C70.1821 20.1583 69.9287 20.0418 69.6063 19.9951L68.5547 19.8552C68.3321 19.8242 68.1095 19.7698 67.8869 19.692C67.6643 19.6143 67.4801 19.4822 67.3265 19.3035C67.1269 19.0625 67.0195 18.775 67.0195 18.4331C67.0195 18.2154 67.0579 18.0134 67.1423 17.8346C67.2267 17.6559 67.3419 17.5005 67.4877 17.3683C67.6796 17.1818 67.9099 17.0497 68.1709 16.972C68.4319 16.8943 68.7006 16.8477 68.9846 16.8477C69.3147 16.8477 69.6217 16.9021 69.9057 17.0109C70.1974 17.1197 70.4354 17.2829 70.6273 17.5005C70.7501 17.6481 70.8499 17.8113 70.919 17.9823C70.9881 18.161 71.0341 18.332 71.0418 18.5108H70.4968C70.4814 18.4253 70.4584 18.3165 70.4123 18.1921C70.374 18.0678 70.3126 17.9512 70.2204 17.8502C70.0976 17.7025 69.9287 17.586 69.7215 17.5005C69.5142 17.415 69.2686 17.3683 68.9846 17.3683C68.5624 17.3683 68.24 17.4538 68.002 17.6248C67.718 17.8269 67.5798 18.0833 67.5798 18.3864C67.5798 18.6196 67.6489 18.8216 67.7948 18.9771C67.9406 19.1403 68.217 19.2491 68.6315 19.3112L69.6678 19.4511C69.9211 19.49 70.1437 19.5522 70.3279 19.6532C70.5198 19.7542 70.6733 19.8708 70.7961 20.0107C70.919 20.1506 71.0111 20.306 71.0725 20.4692C71.1339 20.6479 71.1646 20.8111 71.1646 20.9821Z" fill="white"/>
<path fill-rule="evenodd" clip-rule="evenodd" d="M72.5781 14.7104V15.4798H73.3381V14.7104H72.5781ZM72.6779 17.0108V22.5131H73.2536V17.0108H72.6779Z" fill="white"/>
<path fill-rule="evenodd" clip-rule="evenodd" d="M79.7477 23.3369C79.7477 23.5467 79.7093 23.741 79.6326 23.912C79.5558 24.0829 79.456 24.2306 79.3332 24.355C79.1029 24.5959 78.7959 24.7668 78.4121 24.8601C78.0283 24.9534 77.6214 25 77.1839 25C76.7694 25 76.3856 24.9534 76.0401 24.8601C75.687 24.7668 75.3953 24.5959 75.1651 24.3627C75.0422 24.2384 74.9501 24.0985 74.881 23.9353C74.812 23.7721 74.7812 23.5856 74.7812 23.3757C74.7812 23.1115 74.8503 22.8628 74.9962 22.6297C75.142 22.3965 75.3416 22.2178 75.5949 22.0934C75.403 22.0313 75.2418 21.9147 75.1113 21.7437C74.9808 21.565 74.9117 21.3862 74.9117 21.1919C74.9117 20.9588 74.9655 20.7567 75.0806 20.5858C75.1958 20.4148 75.357 20.2671 75.5642 20.1428C75.3953 19.9718 75.2648 19.7775 75.1651 19.5521C75.0653 19.3268 75.0192 19.0703 75.0192 18.7905C75.0192 18.4952 75.0729 18.231 75.1804 17.9901C75.2879 17.7491 75.426 17.5471 75.6103 17.3761C75.7945 17.2051 76.0094 17.0808 76.2551 16.9875C76.5084 16.902 76.7694 16.8554 77.0534 16.8554C77.5293 16.8554 77.9592 16.9798 78.3276 17.2284C78.3967 16.9953 78.5426 16.8088 78.7498 16.6767C78.9571 16.5446 79.1797 16.4746 79.433 16.4746C79.4714 16.4746 79.5021 16.4746 79.5328 16.4824C79.5635 16.4902 79.6019 16.4902 79.6326 16.4902V16.9642C79.5942 16.9642 79.5635 16.9642 79.5328 16.9564C79.5021 16.9487 79.4637 16.9487 79.433 16.9487C79.2411 16.9487 79.0722 17.0031 78.9417 17.1041C78.8112 17.2051 78.7191 17.3528 78.6884 17.5471C78.8266 17.7103 78.934 17.889 79.0108 18.0989C79.0876 18.3009 79.126 18.5341 79.126 18.7828C79.126 19.0858 79.0722 19.3501 78.9648 19.5832C78.8573 19.8164 78.7114 20.0184 78.5272 20.1739C78.343 20.3293 78.1281 20.4614 77.8747 20.5469C77.6214 20.6324 77.3604 20.679 77.0764 20.679C76.6696 20.679 76.3088 20.5935 75.9864 20.4226C75.8406 20.4847 75.7177 20.5702 75.6026 20.679C75.4951 20.7956 75.4414 20.9355 75.4414 21.1064C75.4414 21.2386 75.4798 21.3474 75.5489 21.4329C75.618 21.5183 75.7101 21.5805 75.8175 21.6271C75.9173 21.666 76.0401 21.6893 76.1783 21.6971L76.2271 21.6999C76.3455 21.7066 76.4512 21.7126 76.5391 21.7126H77.7212C78.0666 21.7126 78.3814 21.7593 78.65 21.8447C78.9187 21.9302 79.1413 22.0701 79.3179 22.2489C79.4483 22.381 79.5558 22.5286 79.6326 22.6996C79.7017 22.8939 79.7477 23.096 79.7477 23.3369ZM79.2027 23.3369C79.2027 23.1814 79.1797 23.0493 79.1336 22.9483C79.0876 22.8395 79.0262 22.7462 78.9417 22.653C78.6884 22.381 78.2509 22.2488 77.6291 22.2488H76.1937C75.9634 22.311 75.7561 22.4276 75.5719 22.6141C75.3877 22.8006 75.2956 23.0571 75.2956 23.3757C75.2956 23.5234 75.3263 23.6555 75.38 23.7721C75.4337 23.8886 75.5028 23.9897 75.5949 24.0674C75.687 24.1606 75.8022 24.2384 75.9327 24.2928C76.0632 24.3472 76.2013 24.3938 76.3395 24.4249C76.4777 24.456 76.6235 24.4793 76.7771 24.4948C76.9229 24.5026 77.0687 24.5104 77.2069 24.5104C77.3382 24.5104 77.4763 24.5034 77.6214 24.496L77.6445 24.4948C77.798 24.4871 77.9592 24.4637 78.1204 24.4249C78.2816 24.3938 78.4274 24.3394 78.5733 24.2772C78.7114 24.2073 78.8343 24.1296 78.934 24.0208C79.0108 23.943 79.0799 23.842 79.1336 23.7254C79.172 23.6166 79.2027 23.4845 79.2027 23.3369ZM78.4351 18.1999C78.5195 18.3709 78.5579 18.5729 78.5579 18.7905C78.5579 19.0081 78.5195 19.2102 78.4351 19.3889C78.3507 19.5599 78.2432 19.7076 78.1127 19.8319C77.9822 19.9485 77.821 20.0417 77.6368 20.1039C77.4526 20.1661 77.253 20.1972 77.0457 20.1972C76.8385 20.1972 76.6389 20.1661 76.4547 20.1039C76.2704 20.0417 76.1092 19.9563 75.9787 19.8319C75.8482 19.7153 75.7408 19.5677 75.664 19.3889C75.5872 19.2102 75.5489 19.0081 75.5489 18.7905C75.5489 18.5729 75.5872 18.3786 75.664 18.1999C75.7408 18.0211 75.8482 17.8735 75.9787 17.7491C76.1092 17.6248 76.2704 17.5315 76.4547 17.4616C76.6389 17.3916 76.8385 17.3606 77.0457 17.3606C77.253 17.3606 77.4526 17.3916 77.6368 17.4616C77.821 17.5315 77.9822 17.6248 78.1127 17.7491C78.2509 17.8735 78.3583 18.0211 78.4351 18.1999Z" fill="white"/>
<path d="M84.7069 22.5133V18.9151C84.7069 18.4332 84.5994 18.0524 84.3845 17.7882C84.1696 17.5239 83.8088 17.3841 83.3098 17.3841C82.9798 17.3841 82.6957 17.454 82.4655 17.5861C82.2352 17.7182 82.0433 17.9048 81.9051 18.1224C81.7669 18.3477 81.6595 18.6042 81.5981 18.884C81.5366 19.1715 81.5059 19.4591 81.5059 19.7544V22.5055H80.9609V14.563H81.5059V18.0213C81.575 17.8426 81.6825 17.6871 81.813 17.5395C81.9435 17.3996 82.0893 17.2753 82.2505 17.1742C82.4117 17.0732 82.5883 16.9955 82.7802 16.9411C82.9721 16.8867 83.1563 16.8556 83.3482 16.8556C83.9777 16.8556 84.4536 17.0343 84.776 17.3918C85.0984 17.7493 85.2596 18.2467 85.2596 18.8684V22.5055H84.7069V22.5133Z" fill="white"/>
<path d="M89.7483 22.4587C89.5948 22.4976 89.449 22.5287 89.2954 22.552C89.1496 22.5753 88.9961 22.5909 88.8425 22.5909C88.3359 22.5909 87.9751 22.4432 87.7602 22.1479C87.5453 21.8526 87.4378 21.464 87.4378 20.9899V17.5238H86.3555V17.0187H87.4455V15.5032L87.9905 15.3711V17.0264H89.6792V17.5316H87.9905V20.9744C87.9905 21.1376 88.0058 21.2852 88.0289 21.4174C88.0519 21.5495 88.098 21.6738 88.167 21.7671C88.2361 21.8681 88.3282 21.9458 88.4434 22.0002C88.5585 22.0546 88.7044 22.0857 88.8886 22.0857C89.0344 22.0857 89.1803 22.0779 89.3185 22.0546C89.4566 22.0391 89.6025 22.0158 89.7483 21.9847V22.4587V22.4587Z" fill="white"/>
<path d="M95.0005 20.9821C95.0005 21.3707 94.8777 21.7126 94.6321 21.9924C94.4325 22.21 94.1869 22.381 93.8798 22.4898C93.5728 22.5986 93.235 22.653 92.8742 22.653C92.5058 22.653 92.168 22.5908 91.861 22.4743C91.5539 22.3577 91.3006 22.1789 91.0857 21.9458C90.9322 21.767 90.8247 21.5961 90.7556 21.4251C90.6865 21.2541 90.6482 21.0598 90.6328 20.8345H91.1855C91.2162 21.1609 91.3467 21.4406 91.5847 21.6816C91.7459 21.837 91.9301 21.9458 92.1527 22.0157C92.3676 22.0857 92.6056 22.1168 92.8666 22.1168C93.1506 22.1168 93.3962 22.0857 93.6188 22.0157C93.8338 21.9458 94.0103 21.8448 94.1485 21.7049C94.2483 21.6038 94.325 21.5028 94.3711 21.394C94.4171 21.293 94.4402 21.1609 94.4402 20.9977C94.4402 20.749 94.3557 20.5314 94.1869 20.3449C94.018 20.1583 93.7647 20.0418 93.4423 19.9951L92.3906 19.8552C92.168 19.8242 91.9454 19.7698 91.7228 19.692C91.5002 19.6143 91.316 19.4822 91.1625 19.3035C90.9629 19.0625 90.8554 18.775 90.8554 18.4331C90.8554 18.2154 90.8938 18.0134 90.9782 17.8346C91.0627 17.6559 91.1778 17.5005 91.3237 17.3683C91.5156 17.1818 91.7459 17.0497 92.0068 16.972C92.2678 16.8943 92.5365 16.8477 92.8205 16.8477C93.1506 16.8477 93.4576 16.9021 93.7416 17.0109C94.0333 17.1197 94.2713 17.2829 94.4632 17.5005C94.586 17.6481 94.6858 17.8113 94.7549 17.9823C94.824 18.161 94.87 18.332 94.8777 18.5108H94.3327C94.3174 18.4253 94.2943 18.3165 94.2483 18.1921C94.2099 18.0678 94.1485 17.9512 94.0564 17.8502C93.9336 17.7025 93.7647 17.586 93.5574 17.5005C93.3502 17.415 93.1045 17.3683 92.8205 17.3683C92.3983 17.3683 92.0759 17.4538 91.838 17.6248C91.5539 17.8269 91.4158 18.0833 91.4158 18.3864C91.4158 18.6196 91.4849 18.8216 91.6307 18.9771C91.7766 19.1403 92.0529 19.2491 92.4674 19.3112L93.5037 19.4511C93.757 19.49 93.9796 19.5522 94.1638 19.6532C94.3557 19.7542 94.5093 19.8708 94.6321 20.0107C94.7549 20.1506 94.847 20.306 94.9084 20.4692C94.9698 20.6479 95.0005 20.8111 95.0005 20.9821Z" fill="white"/>
</svg>
